<svg xmlns="http://www.w3.org/2000/svg" width="900" height="364" viewBox="0 0 900 364" role="img"><title>Attention Rollout hesabi ve akciger-odak oraninin (LFR) dikkat haritasi ile akciger maskesinden turetilmesi.</title><rect width="900" height="364" fill="#FFFFFF"/><defs><marker id="mke5" viewBox="0 0 10 10" refX="8.5" refY="5" markerWidth="6.5" markerHeight="6.5" orient="auto-start-reverse"><path d="M 0 1 L 9 5 L 0 9 z" fill="#6E7A80" /></marker><marker id="mka5" viewBox="0 0 10 10" refX="8.5" refY="5" markerWidth="6.5" markerHeight="6.5" orient="auto-start-reverse"><path d="M 0 1 L 9 5 L 0 9 z" fill="#17616B" /></marker><marker id="mkb5" viewBox="0 0 10 10" refX="8.5" refY="5" markerWidth="6.5" markerHeight="6.5" orient="auto-start-reverse"><path d="M 0 1 L 9 5 L 0 9 z" fill="#96421F" /></marker></defs><text x="20" y="26" font-family="Helvetica Neue, Helvetica, Arial, sans-serif" font-size="15" font-weight="700" fill="#1B2327" text-anchor="start">(a)</text><text x="52" y="26" font-family="Helvetica Neue, Helvetica, Arial, sans-serif" font-size="12" font-weight="600" fill="#5A686F" letter-spacing="0.9" text-anchor="start">DİKKAT AKIŞININ BÜTÜNLEŞTİRİLMESİ</text><rect x="20" y="54" width="148" height="56" rx="2.5" fill="#FFFFFF" stroke="#7C888E" stroke-width="1.1" /><text x="94.0" y="72.5" font-family="Helvetica Neue, Helvetica, Arial, sans-serif" font-size="13.5" font-weight="600" fill="#1B2327" text-anchor="middle">İleri geçiş</text><text x="94.0" y="88.0" font-family="Helvetica Neue, Helvetica, Arial, sans-serif" font-size="11.5" font-weight="400" fill="#5A686F" text-anchor="middle">12 katman</text><text x="94.0" y="101.5" font-family="Helvetica Neue, Helvetica, Arial, sans-serif" font-size="11.5" font-weight="400" fill="#5A686F" text-anchor="middle">A(l) : 12 × 197 × 197</text><rect x="212" y="54" width="190" height="56" rx="2.5" fill="#FFFFFF" stroke="#7C888E" stroke-width="1.1" /><text x="307.0" y="79.2" font-family="Helvetica Neue, Helvetica, Arial, sans-serif" font-size="13.5" font-weight="600" fill="#1B2327" text-anchor="middle">Kafa ortalaması</text><text x="307.0" y="94.8" font-family="Helvetica Neue, Helvetica, Arial, sans-serif" font-size="11.5" font-weight="400" fill="#5A686F" text-anchor="middle">Ã(l) = ort_h A_h(l)</text><rect x="446" y="54" width="200" height="56" rx="2.5" fill="#FFFFFF" stroke="#7C888E" stroke-width="1.1" /><text x="546.0" y="79.2" font-family="Helvetica Neue, Helvetica, Arial, sans-serif" font-size="13.5" font-weight="600" fill="#1B2327" text-anchor="middle">Artık + satır normalizasyonu</text><text x="546.0" y="94.8" font-family="Helvetica Neue, Helvetica, Arial, sans-serif" font-size="11.5" font-weight="400" fill="#5A686F" text-anchor="middle">Â(l) = D⁻¹ (Ã(l) + I)</text><rect x="690" y="54" width="190" height="56" rx="2.5" fill="#DDEBED" stroke="#17616B" stroke-width="1.6" /><text x="785.0" y="79.2" font-family="Helvetica Neue, Helvetica, Arial, sans-serif" font-size="13.5" font-weight="600" fill="#1B2327" text-anchor="middle">Katman çarpımı</text><text x="785.0" y="94.8" font-family="Helvetica Neue, Helvetica, Arial, sans-serif" font-size="11.5" font-weight="400" fill="#5A686F" text-anchor="middle">R = Â(L) ⋯ Â(1)</text><path d="M 168 82 L 210 82" fill="none" stroke="#6E7A80" stroke-width="1.3" marker-end="url(#mke5)" /><path d="M 402 82 L 444 82" fill="none" stroke="#6E7A80" stroke-width="1.3" marker-end="url(#mke5)" /><path d="M 646 82 L 688 82" fill="none" stroke="#6E7A80" stroke-width="1.3" marker-end="url(#mke5)" /><text x="785" y="128" font-family="Helvetica Neue, Helvetica, Arial, sans-serif" font-size="11.5" font-weight="400" fill="#5A686F" text-anchor="middle">R[0, 1:] → 14 × 14 → 224²  =  S(u)</text><text x="20" y="170" font-family="Helvetica Neue, Helvetica, Arial, sans-serif" font-size="15" font-weight="700" fill="#1B2327" text-anchor="start">(b)</text><text x="52" y="170" font-family="Helvetica Neue, Helvetica, Arial, sans-serif" font-size="12" font-weight="600" fill="#5A686F" letter-spacing="0.9" text-anchor="start">AKCİĞER-ODAK ORANI (LFR)</text><rect x="44.62" y="200.00" width="11.65" height="12.10" fill="#17616B" stroke="none" fill-opacity="0.089" /><rect x="55.96" y="200.00" width="11.65" height="12.10" fill="#17616B" stroke="none" fill-opacity="0.263" /><rect x="67.31" y="200.00" width="11.65" height="12.10" fill="#17616B" stroke="none" fill-opacity="0.356" /><rect x="78.65" y="200.00" width="11.65" height="12.10" fill="#17616B" stroke="none" fill-opacity="0.150" /><rect x="90.00" y="200.00" width="11.65" height="12.10" fill="#17616B" stroke="none" fill-opacity="0.150" /><rect x="101.35" y="200.00" width="11.65" height="12.10" fill="#17616B" stroke="none" fill-opacity="0.356" /><rect x="112.69" y="200.00" width="11.65" height="12.10" fill="#17616B" stroke="none" fill-opacity="0.263" /><rect x="124.04" y="200.00" width="11.65" height="12.10" fill="#17616B" stroke="none" fill-opacity="0.089" /><rect x="44.62" y="211.80" width="11.65" height="12.10" fill="#17616B" stroke="none" fill-opacity="0.109" /><rect x="55.96" y="211.80" width="11.65" height="12.10" fill="#17616B" stroke="none" fill-opacity="0.402" /><rect x="67.31" y="211.80" width="11.65" height="12.10" fill="#17616B" stroke="none" fill-opacity="0.558" /><rect x="78.65" y="211.80" width="11.65" height="12.10" fill="#17616B" stroke="none" fill-opacity="0.212" /><rect x="90.00" y="211.80" width="11.65" height="12.10" fill="#17616B" stroke="none" fill-opacity="0.212" /><rect x="101.35" y="211.80" width="11.65" height="12.10" fill="#17616B" stroke="none" fill-opacity="0.558" /><rect x="112.69" y="211.80" width="11.65" height="12.10" fill="#17616B" stroke="none" fill-opacity="0.402" /><rect x="124.04" y="211.80" width="11.65" height="12.10" fill="#17616B" stroke="none" fill-opacity="0.109" /><rect x="44.62" y="223.60" width="11.65" height="12.10" fill="#17616B" stroke="none" fill-opacity="0.130" /><rect x="55.96" y="223.60" width="11.65" height="12.10" fill="#17616B" stroke="none" fill-opacity="0.544" /><rect x="67.31" y="223.60" width="11.65" height="12.10" fill="#17616B" stroke="none" fill-opacity="0.765" /><rect x="78.65" y="223.60" width="11.65" height="12.10" fill="#17616B" stroke="none" fill-opacity="0.275" /><rect x="90.00" y="223.60" width="11.65" height="12.10" fill="#17616B" stroke="none" fill-opacity="0.275" /><rect x="101.35" y="223.60" width="11.65" height="12.10" fill="#17616B" stroke="none" fill-opacity="0.765" /><rect x="112.69" y="223.60" width="11.65" height="12.10" fill="#17616B" stroke="none" fill-opacity="0.544" /><rect x="124.04" y="223.60" width="11.65" height="12.10" fill="#17616B" stroke="none" fill-opacity="0.130" /><rect x="44.62" y="235.40" width="11.65" height="12.10" fill="#17616B" stroke="none" fill-opacity="0.143" /><rect x="55.96" y="235.40" width="11.65" height="12.10" fill="#17616B" stroke="none" fill-opacity="0.636" /><rect x="67.31" y="235.40" width="11.65" height="12.10" fill="#17616B" stroke="none" fill-opacity="0.898" /><rect x="78.65" y="235.40" width="11.65" height="12.10" fill="#17616B" stroke="none" fill-opacity="0.316" /><rect x="90.00" y="235.40" width="11.65" height="12.10" fill="#17616B" stroke="none" fill-opacity="0.316" /><rect x="101.35" y="235.40" width="11.65" height="12.10" fill="#17616B" stroke="none" fill-opacity="0.898" /><rect x="112.69" y="235.40" width="11.65" height="12.10" fill="#17616B" stroke="none" fill-opacity="0.636" /><rect x="124.04" y="235.40" width="11.65" height="12.10" fill="#17616B" stroke="none" fill-opacity="0.143" /><rect x="44.62" y="247.20" width="11.65" height="12.10" fill="#17616B" stroke="none" fill-opacity="0.143" /><rect x="55.96" y="247.20" width="11.65" height="12.10" fill="#17616B" stroke="none" fill-opacity="0.636" /><rect x="67.31" y="247.20" width="11.65" height="12.10" fill="#17616B" stroke="none" fill-opacity="0.898" /><rect x="78.65" y="247.20" width="11.65" height="12.10" fill="#17616B" stroke="none" fill-opacity="0.316" /><rect x="90.00" y="247.20" width="11.65" height="12.10" fill="#17616B" stroke="none" fill-opacity="0.316" /><rect x="101.35" y="247.20" width="11.65" height="12.10" fill="#17616B" stroke="none" fill-opacity="0.898" /><rect x="112.69" y="247.20" width="11.65" height="12.10" fill="#17616B" stroke="none" fill-opacity="0.636" /><rect x="124.04" y="247.20" width="11.65" height="12.10" fill="#17616B" stroke="none" fill-opacity="0.143" /><rect x="44.62" y="259.00" width="11.65" height="12.10" fill="#17616B" stroke="none" fill-opacity="0.130" /><rect x="55.96" y="259.00" width="11.65" height="12.10" fill="#17616B" stroke="none" fill-opacity="0.544" /><rect x="67.31" y="259.00" width="11.65" height="12.10" fill="#17616B" stroke="none" fill-opacity="0.765" /><rect x="78.65" y="259.00" width="11.65" height="12.10" fill="#17616B" stroke="none" fill-opacity="0.275" /><rect x="90.00" y="259.00" width="11.65" height="12.10" fill="#17616B" stroke="none" fill-opacity="0.275" /><rect x="101.35" y="259.00" width="11.65" height="12.10" fill="#17616B" stroke="none" fill-opacity="0.765" /><rect x="112.69" y="259.00" width="11.65" height="12.10" fill="#17616B" stroke="none" fill-opacity="0.544" /><rect x="124.04" y="259.00" width="11.65" height="12.10" fill="#17616B" stroke="none" fill-opacity="0.130" /><rect x="44.62" y="270.80" width="11.65" height="12.10" fill="#17616B" stroke="none" fill-opacity="0.109" /><rect x="55.96" y="270.80" width="11.65" height="12.10" fill="#17616B" stroke="none" fill-opacity="0.402" /><rect x="67.31" y="270.80" width="11.65" height="12.10" fill="#17616B" stroke="none" fill-opacity="0.558" /><rect x="78.65" y="270.80" width="11.65" height="12.10" fill="#17616B" stroke="none" fill-opacity="0.212" /><rect x="90.00" y="270.80" width="11.65" height="12.10" fill="#17616B" stroke="none" fill-opacity="0.212" /><rect x="101.35" y="270.80" width="11.65" height="12.10" fill="#17616B" stroke="none" fill-opacity="0.558" /><rect x="112.69" y="270.80" width="11.65" height="12.10" fill="#17616B" stroke="none" fill-opacity="0.402" /><rect x="124.04" y="270.80" width="11.65" height="12.10" fill="#17616B" stroke="none" fill-opacity="0.109" /><rect x="44.62" y="282.60" width="11.65" height="12.10" fill="#17616B" stroke="none" fill-opacity="0.089" /><rect x="55.96" y="282.60" width="11.65" height="12.10" fill="#17616B" stroke="none" fill-opacity="0.263" /><rect x="67.31" y="282.60" width="11.65" height="12.10" fill="#17616B" stroke="none" fill-opacity="0.356" /><rect x="78.65" y="282.60" width="11.65" height="12.10" fill="#17616B" stroke="none" fill-opacity="0.150" /><rect x="90.00" y="282.60" width="11.65" height="12.10" fill="#17616B" stroke="none" fill-opacity="0.150" /><rect x="101.35" y="282.60" width="11.65" height="12.10" fill="#17616B" stroke="none" fill-opacity="0.356" /><rect x="112.69" y="282.60" width="11.65" height="12.10" fill="#17616B" stroke="none" fill-opacity="0.263" /><rect x="124.04" y="282.60" width="11.65" height="12.10" fill="#17616B" stroke="none" fill-opacity="0.089" /><rect x="44.62" y="294.40" width="11.65" height="12.10" fill="#17616B" stroke="none" fill-opacity="0.075" /><rect x="55.96" y="294.40" width="11.65" height="12.10" fill="#17616B" stroke="none" fill-opacity="0.162" /><rect x="67.31" y="294.40" width="11.65" height="12.10" fill="#17616B" stroke="none" fill-opacity="0.208" /><rect x="78.65" y="294.40" width="11.65" height="12.10" fill="#17616B" stroke="none" fill-opacity="0.105" /><rect x="90.00" y="294.40" width="11.65" height="12.10" fill="#17616B" stroke="none" fill-opacity="0.105" /><rect x="101.35" y="294.40" width="11.65" height="12.10" fill="#17616B" stroke="none" fill-opacity="0.208" /><rect x="112.69" y="294.40" width="11.65" height="12.10" fill="#17616B" stroke="none" fill-opacity="0.162" /><rect x="124.04" y="294.40" width="11.65" height="12.10" fill="#17616B" stroke="none" fill-opacity="0.075" /><rect x="44.62" y="306.20" width="11.65" height="12.10" fill="#17616B" stroke="none" fill-opacity="0.066" /><rect x="55.96" y="306.20" width="11.65" height="12.10" fill="#17616B" stroke="none" fill-opacity="0.103" /><rect x="67.31" y="306.20" width="11.65" height="12.10" fill="#17616B" stroke="none" fill-opacity="0.122" /><rect x="78.65" y="306.20" width="11.65" height="12.10" fill="#17616B" stroke="none" fill-opacity="0.079" /><rect x="90.00" y="306.20" width="11.65" height="12.10" fill="#17616B" stroke="none" fill-opacity="0.079" /><rect x="101.35" y="306.20" width="11.65" height="12.10" fill="#17616B" stroke="none" fill-opacity="0.122" /><rect x="112.69" y="306.20" width="11.65" height="12.10" fill="#17616B" stroke="none" fill-opacity="0.103" /><rect x="124.04" y="306.20" width="11.65" height="12.10" fill="#17616B" stroke="none" fill-opacity="0.066" /><path d="M 81.83 218.15 C 70.03 219.97 60.95 238.12 60.05 259.91 C 59.14 278.06 63.68 294.40 70.03 298.94 C 78.20 302.57 86.37 296.22 86.37 283.51 L 86.37 221.78 C 86.37 219.06 84.55 218.15 81.83 218.15 Z" fill="none" stroke="#FFFFFF" stroke-width="2.8" /><path d="M 81.83 218.15 C 70.03 219.97 60.95 238.12 60.05 259.91 C 59.14 278.06 63.68 294.40 70.03 298.94 C 78.20 302.57 86.37 296.22 86.37 283.51 L 86.37 221.78 C 86.37 219.06 84.55 218.15 81.83 218.15 Z" fill="none" stroke="#1B2327" stroke-width="1.0" stroke-dasharray="4 2.5" /><path d="M 98.17 218.15 C 109.97 219.97 119.05 238.12 119.95 259.91 C 120.86 278.06 116.32 294.40 109.97 298.94 C 101.80 302.57 93.63 296.22 93.63 283.51 L 93.63 221.78 C 93.63 219.06 95.45 218.15 98.17 218.15 Z" fill="none" stroke="#FFFFFF" stroke-width="2.8" /><path d="M 98.17 218.15 C 109.97 219.97 119.05 238.12 119.95 259.91 C 120.86 278.06 116.32 294.40 109.97 298.94 C 101.80 302.57 93.63 296.22 93.63 283.51 L 93.63 221.78 C 93.63 219.06 95.45 218.15 98.17 218.15 Z" fill="none" stroke="#1B2327" stroke-width="1.0" stroke-dasharray="4 2.5" /><rect x="44.6" y="200.0" width="90.8" height="118.0" fill="none" stroke="#A9B4B8" stroke-width="1.0" /><text x="90" y="336" font-family="Helvetica Neue, Helvetica, Arial, sans-serif" font-size="11.5" font-weight="400" fill="#5A686F" text-anchor="middle">S(u) : dikkat haritası</text><rect x="184.6" y="200.0" width="90.8" height="118.0" fill="#CBD2D5" stroke="none" /><clipPath id="cl5_0"><rect x="184.6" y="200.0" width="90.8" height="118.0" /></clipPath><g clip-path="url(#cl5_0)"><path d="M 221.83 217.25 C 210.03 219.06 200.95 237.22 200.05 259.00 C 199.14 277.15 203.68 293.49 210.03 298.03 C 218.20 301.66 226.37 295.31 226.37 282.60 L 226.37 220.88 C 226.37 218.15 224.55 217.25 221.83 217.25 Z" fill="#DDEBED" stroke="none" /><path d="M 238.17 217.25 C 249.97 219.06 259.05 237.22 259.95 259.00 C 260.86 277.15 256.32 293.49 249.97 298.03 C 241.80 301.66 233.63 295.31 233.63 282.60 L 233.63 220.88 C 233.63 218.15 235.45 217.25 238.17 217.25 Z" fill="#DDEBED" stroke="none" /><clipPath id="cl5_1"><path d="M 221.83 217.25 C 210.03 219.06 200.95 237.22 200.05 259.00 C 199.14 277.15 203.68 293.49 210.03 298.03 C 218.20 301.66 226.37 295.31 226.37 282.60 L 226.37 220.88 C 226.37 218.15 224.55 217.25 221.83 217.25 Z"  /><path d="M 238.17 217.25 C 249.97 219.06 259.05 237.22 259.95 259.00 C 260.86 277.15 256.32 293.49 249.97 298.03 C 241.80 301.66 233.63 295.31 233.63 282.60 L 233.63 220.88 C 233.63 218.15 235.45 217.25 238.17 217.25 Z"  /></clipPath><g clip-path="url(#cl5_1)"><path d="M 200.95 229.95 Q 213.66 236.31 225.46 233.58" fill="none" stroke="#A9B4B8" stroke-width="0.8" /><path d="M 200.05 244.48 Q 212.75 251.74 225.46 249.02" fill="none" stroke="#A9B4B8" stroke-width="0.8" /><path d="M 200.95 259.00 Q 213.66 267.17 225.46 264.45" fill="none" stroke="#A9B4B8" stroke-width="0.8" /><path d="M 202.77 273.52 Q 214.57 281.69 225.46 278.97" fill="none" stroke="#A9B4B8" stroke-width="0.8" /><path d="M 259.05 229.95 Q 246.34 236.31 234.54 233.58" fill="none" stroke="#A9B4B8" stroke-width="0.8" /><path d="M 259.95 244.48 Q 247.25 251.74 234.54 249.02" fill="none" stroke="#A9B4B8" stroke-width="0.8" /><path d="M 259.05 259.00 Q 246.34 267.17 234.54 264.45" fill="none" stroke="#A9B4B8" stroke-width="0.8" /><path d="M 257.23 273.52 Q 245.43 281.69 234.54 278.97" fill="none" stroke="#A9B4B8" stroke-width="0.8" /></g><path d="M 221.83 217.25 C 210.03 219.06 200.95 237.22 200.05 259.00 C 199.14 277.15 203.68 293.49 210.03 298.03 C 218.20 301.66 226.37 295.31 226.37 282.60 L 226.37 220.88 C 226.37 218.15 224.55 217.25 221.83 217.25 Z" fill="none" stroke="#17616B" stroke-width="1.6" /><path d="M 238.17 217.25 C 249.97 219.06 259.05 237.22 259.95 259.00 C 260.86 277.15 256.32 293.49 249.97 298.03 C 241.80 301.66 233.63 295.31 233.63 282.60 L 233.63 220.88 C 233.63 218.15 235.45 217.25 238.17 217.25 Z" fill="none" stroke="#17616B" stroke-width="1.6" /></g><rect x="184.6" y="200.0" width="90.8" height="118.0" fill="none" stroke="#A9B4B8" stroke-width="1.0" /><text x="230" y="336" font-family="Helvetica Neue, Helvetica, Arial, sans-serif" font-size="11.5" font-weight="400" fill="#5A686F" text-anchor="middle">L(u) : akciğer maskesi</text><rect x="330" y="216" width="250" height="86" rx="2.5" fill="#FFFFFF" stroke="#7C888E" stroke-width="1.1" /><text x="455.0" y="249.5" font-family="Helvetica Neue, Helvetica, Arial, sans-serif" font-size="13.5" font-weight="600" fill="#1B2327" text-anchor="middle">Akciğer-odak oranı</text><text x="455.0" y="265.0" font-family="Helvetica Neue, Helvetica, Arial, sans-serif" font-size="11.5" font-weight="400" fill="#5A686F" text-anchor="middle">Ω = { u : S(u) &gt; 0,20 }</text><text x="455.0" y="278.5" font-family="Helvetica Neue, Helvetica, Arial, sans-serif" font-size="11.5" font-weight="400" fill="#5A686F" text-anchor="middle">LFR = Σ_Ω S(u)·L(u)  /  Σ_Ω S(u)</text><path d="M 90 198 L 90 188 L 305 188 L 305 259 L 328 259" fill="none" stroke="#6E7A80" stroke-width="1.3" marker-end="url(#mke5)" /><path d="M 277 259 L 328 259" fill="none" stroke="#6E7A80" stroke-width="1.3" marker-end="url(#mke5)" /><path d="M 580 259 L 618 259" fill="none" stroke="#17616B" stroke-width="1.6" marker-end="url(#mka5)" /><rect x="620" y="216" width="260" height="86" rx="2.5" fill="#DDEBED" stroke="#17616B" stroke-width="1.6" /><text x="636" y="238" font-family="Helvetica Neue, Helvetica, Arial, sans-serif" font-size="13.5" font-weight="600" fill="#1B2327" text-anchor="start">Ölçülen odak oranı</text><text x="654" y="270" font-family="Helvetica Neue, Helvetica, Arial, sans-serif" font-size="11.5" font-weight="400" fill="#5A686F" text-anchor="end">V1</text><rect x="660" y="260" width="23.9" height="12" rx="1" fill="#17616B" stroke="none" /><text x="689.9" y="270" font-family="Helvetica Neue, Helvetica, Arial, sans-serif" font-size="11.5" font-weight="400" fill="#1B2327" font-variant-numeric="tabular-nums" text-anchor="start">0,159</text><text x="654" y="294" font-family="Helvetica Neue, Helvetica, Arial, sans-serif" font-size="11.5" font-weight="400" fill="#5A686F" text-anchor="end">V2</text><rect x="660" y="284" width="135.5" height="12" rx="1" fill="#17616B" stroke="none" /><text x="801.5" y="294" font-family="Helvetica Neue, Helvetica, Arial, sans-serif" font-size="11.5" font-weight="400" fill="#1B2327" font-variant-numeric="tabular-nums" text-anchor="start">0,903</text></svg>